<svg version="1.0" xmlns="http://www.w3.org/2000/svg" width="800.000000" height="800.000000" viewBox="0 0 800.000000 800.000000" preserveAspectRatio="xMidYMid meet">
  <metadata>
    <rdf:RDF xmlns:rdf="http://www.w3.org/1999/02/22-rdf-syntax-ns#" xmlns:rdfs="http://www.w3.org/2000/01/rdf-schema#" xmlns:dc="http://purl.org/dc/elements/1.1/">
      <rdf:Description dc:format="image/svg+xml" dc:Label="1" dc:ContentProducer="001191330110MACRLGPT8B00000" dc:ProduceID="401921069" dc:ReservedCode1="3/mLltCq1URk5QI17Ki+jcL7HEag6f9CG1r7ua3TcQA=" dc:ContentPropagator="001191330110MACRLGPT8B00000" dc:PropagateID="401921069" dc:ReservedCode2="3/mLltCq1URk5QI17Ki+jcL7HEag6f9CG1r7ua3TcQA="/>
    </rdf:RDF>
  </metadata>
  <g transform="translate(175.710813,630.970111) scale(0.057533,-0.057533)" fill="#000000" stroke="none">
    <path d="M3750 7660 c-696 -47 -1328 -446 -1672 -1055 -76 -135 -198 -451 -198 -515 0 -19 -6 -20 -159 -20 -171 0 -243 -9 -306 -40 -55 -26 -121 -94 -153 -155 -23 -43 -27 -62 -27 -140 0 -74 5 -98 24 -138 35 -71 104 -142 169 -174 l57 -28 330 -5 330 -5 12 -85 c27 -194 90 -405 164 -552 21 -43 38 -78 36 -78 -2 0 -80 12 -173 26 -330 50 -731 43 -958 -16 -270 -71 -456 -215 -549 -425 -65 -150 -61 -29 -64 -1754 -2 -1041 0 -1582 7 -1619 22 -120 94 -211 208 -265 63 -30 74 -32 172 -31 94 0 114 4 190 33 142 55 249 72 475 76 336 6 526 -23 1355 -205 302 -66 616 -120 700 -120 37 1 89 9 120 19 46 17 58 17 80 6 59 -31 109 -37 204 -25 178 23 340 55 901 180 282 63 457 95 658 121 211 27 484 36 611 20 126 -16 285 -55 339 -83 53 -27 184 -36 266 -18 119 26 219 108 263 218 l23 57 0 1595 0 1595 -22 83 c-54 202 -166 345 -353 450 -113 63 -294 113 -487 133 -158 16 -474 6 -663 -21 -197 -29 -237 -33 -225 -23 14 11 78 150 114 248 36 100 76 262 91 377 l12 87 341 3 342 3 61 32 c74 39 136 107 165 183 30 78 23 194 -15 268 -35 70 -95 128 -165 160 -53 25 -66 27 -255 32 l-199 5 -23 85 c-45 172 -115 335 -212 498 -198 332 -502 612 -860 791 -317 158 -715 236 -1082 211z m460 -335 c607 -109 1111 -513 1334 -1067 48 -120 75 -220 101 -373 l22 -130 117 4 c64 2 200 0 301 -4 172 -7 185 -8 185 -26 0 -19 -52 -19 -2360 -19 -2326 0 -2360 0 -2360 19 0 11 8 22 18 25 9 2 140 4 290 4 151 0 276 2 278 5 3 2 11 47 19 100 55 369 203 670 467 953 76 81 184 168 310 251 205 135 445 224 723 268 119 19 424 13 555 -10z m1117 -1994 c-22 -212 -98 -424 -227 -641 l-69 -115 -183 -58 c-382 -122 -695 -261 -933 -413 -18 -11 -27 -8 -80 27 -91 60 -358 193 -502 250 -70 29 -222 83 -338 121 -115 39 -215 73 -222 77 -19 10 -92 128 -143 231 -85 170 -145 362 -157 505 l-6 75 1433 0 1433 0 -6 -59z m-3317 -926 c435 -55 872 -170 1250 -330 226 -96 460 -224 474 -261 3 -8 6 -715 6 -1570 0 -1414 -1 -1555 -16 -1561 -24 -9 -322 44 -709 128 -462 100 -675 141 -910 175 -157 22 -487 30 -638 14 -132 -14 -323 -56 -400 -89 -58 -25 -100 -27 -121 -5 -15 14 -16 163 -14 1587 l3 1572 22 53 c41 102 119 175 239 225 58 25 222 62 309 70 54 6 449 -1 505 -8z m4325 0 c282 -35 430 -114 501 -268 l29 -62 5 -1531 c3 -843 3 -1554 2 -1582 -3 -41 -8 -51 -28 -61 -36 -16 -63 -14 -130 12 -164 65 -371 97 -617 97 -325 -1 -649 -47 -1222 -175 -389 -87 -741 -155 -801 -155 l-24 0 0 1569 0 1569 63 42 c34 23 134 77 222 120 641 313 1476 490 2000 425z"/>
    <path d="M5860 3789 c-217 -19 -541 -70 -795 -125 -182 -39 -577 -142 -587 -152 -6 -6 56 -289 65 -299 3 -2 76 16 163 41 552 157 1028 231 1490 230 l251 -1 7 105 c3 58 6 126 6 152 0 47 0 47 -37 54 -53 8 -448 5 -563 -5z"/>
  </g>
</svg>